<!DOCTYPE svg PUBLIC "-//W3C//DTD SVG 1.1//EN" "http://www.w3.org/Graphics/SVG/1.1/DTD/svg11.dtd">
<!-- Uploaded to: SVG Repo, www.svgrepo.com, Transformed by: SVG Repo Mixer Tools -->
<svg fill="#d4d4d4" height="800px" width="800px" version="1.1" id="Layer_1" xmlns="http://www.w3.org/2000/svg" xmlns:xlink="http://www.w3.org/1999/xlink" viewBox="0 0 472.865 472.865" xml:space="preserve" stroke="#d4d4d4">
<g id="SVGRepo_bgCarrier" stroke-width="0"/>
<g id="SVGRepo_tracerCarrier" stroke-linecap="round" stroke-linejoin="round"/>
<g id="SVGRepo_iconCarrier"> <g> <g> <g> <path d="M191.22,239.646c-23.159,0-42,18.841-42,42s18.841,42,42,42s42-18.841,42-42S214.379,239.646,191.22,239.646z M191.22,308.646c-14.888,0-27-12.112-27-27s12.112-27,27-27s27,12.112,27,27S206.107,308.646,191.22,308.646z"/> <path d="M103.468,295.152c-2.93-2.928-7.678-2.928-10.607,0c-2.929,2.93-2.929,7.678,0,10.607l2.302,2.301 c-9.624,14.552-8.035,34.39,4.769,47.196l17.68,17.679c7.311,7.31,16.912,10.965,26.515,10.965 c7.218-0.001,14.435-2.067,20.68-6.196l2.302,2.302c1.465,1.464,3.385,2.196,5.304,2.196s3.839-0.732,5.304-2.196 c2.929-2.93,2.929-7.678,0-10.607L103.468,295.152z M128.217,362.328l-17.679-17.678c-6.911-6.912-8.352-17.228-4.375-25.587 l47.64,47.64C145.443,370.68,135.127,369.239,128.217,362.328z"/> <path d="M470.668,65.323l-6.126-6.126l4.694-4.694c2.929-2.93,2.929-7.678,0-10.607L428.971,3.63 c-2.929-2.927-7.677-2.929-10.607,0l-4.694,4.694l-6.126-6.126c-2.93-2.928-7.678-2.928-10.607,0 c-2.929,2.93-2.929,7.678,0,10.607l6.126,6.126l-6.303,6.303l-6.127-6.127c-2.93-2.928-7.678-2.928-10.607,0 c-2.929,2.93-2.929,7.678,0,10.607l6.127,6.127l-6.303,6.303l-6.064-6.063c-2.928-2.928-7.677-2.929-10.606,0.001 c-2.929,2.929-2.929,7.678,0.001,10.606l6.063,6.063l-4.695,4.695c-1.118,1.119-1.854,2.563-2.104,4.125l-2.892,18.172 L249.357,183.436c-22.708-11.42-48.725-12.445-71.719-3.911l-7.112-7.112c-2.93-2.928-7.678-2.928-10.607,0 c-2.929,2.93-2.929,7.678,0,10.607l3.35,3.35c-4.333,2.555-8.49,5.484-12.41,8.802l-5.526-5.526 c-2.93-2.928-7.678-2.928-10.607,0c-2.929,2.93-2.929,7.678,0,10.607l5.529,5.529c-4.232,4.997-7.897,10.412-10.942,16.202 c-34.558-1.061-68.073,12.155-92.614,36.697c-48.932,48.933-48.933,128.552-0.001,177.485 c24.467,24.466,56.604,36.698,88.742,36.698s64.276-12.233,88.742-36.699c24.929-24.928,38.172-59.104,36.638-94.245 l22.791-22.79c18.52-18.521,18.52-48.655,0-67.175l-5.642-5.642l125.154-133.002l18.172-2.892 c1.563-0.249,3.006-0.985,4.125-2.104l4.695-4.695l6.063,6.063c1.465,1.465,3.384,2.197,5.304,2.197 c1.919,0,3.839-0.732,5.303-2.196c2.93-2.929,2.93-7.678,0.001-10.606l-6.064-6.064l6.303-6.303l6.127,6.127 c1.465,1.464,3.385,2.196,5.304,2.196c1.919,0,3.839-0.732,5.304-2.196c2.929-2.93,2.929-7.678,0-10.607l-6.127-6.127 l6.303-6.303l6.126,6.126c1.465,1.464,3.385,2.196,5.304,2.196c1.919,0,3.839-0.732,5.304-2.196 C473.598,73.001,473.598,68.253,470.668,65.323z M252.061,241.335c-2.778,2.952-2.708,7.576,0.158,10.442l10.785,10.787 c12.672,12.671,12.672,33.29,0,45.961l-25.167,25.167c-1.537,1.538-2.332,3.667-2.178,5.837 c2.279,32.007-9.414,63.364-32.083,86.031c-43.082,43.085-113.187,43.085-156.271,0.001 C4.22,382.477,4.222,312.375,47.306,269.29c20.802-20.803,48.923-32.363,78.149-32.363c2.62,0,5.249,0.094,7.882,0.281 c3.137,0.222,6.063-1.522,7.36-4.377c3.722-8.186,8.848-15.575,15.235-21.963c21.659-21.651,53.989-27.759,81.636-16.338 l-16.317,15.354c-3.017,2.839-3.161,7.585-0.322,10.602c2.838,3.017,7.585,3.158,10.602,0.322l24.075-22.654 c0.055-0.05,0.108-0.101,0.161-0.152l110.63-104.104l12.57,12.57L252.061,241.335z M406.535,95.991l-14.519,2.31l-17.45-17.45 l2.31-14.519l46.792-46.792l29.659,29.659L406.535,95.991z"/> <path d="M80.486,357.024c-2.93-2.928-7.678-2.928-10.607,0c-2.929,2.93-2.929,7.678,0,10.607l2.132,2.132l-22.413,25.849 c-2.713,3.129-2.376,7.866,0.754,10.58c1.419,1.23,3.168,1.833,4.91,1.833c2.099,0,4.187-0.876,5.67-2.587l21.713-25.042 l9.825,9.825l-25.041,21.712c-3.13,2.714-3.467,7.451-0.754,10.58c1.483,1.711,3.571,2.587,5.67,2.587 c1.742,0,3.491-0.604,4.91-1.833l25.849-22.413l2.132,2.132c1.465,1.464,3.385,2.196,5.304,2.196s3.839-0.732,5.304-2.196 c2.929-2.93,2.929-7.678,0-10.607L80.486,357.024z"/> </g> </g> </g> </g>
</svg>