<!DOCTYPE svg PUBLIC "-//W3C//DTD SVG 1.1//EN" "http://www.w3.org/Graphics/SVG/1.1/DTD/svg11.dtd">
<!-- Uploaded to: SVG Repo, www.svgrepo.com, Transformed by: SVG Repo Mixer Tools -->
<svg fill="#d4d4d4" height="800px" width="800px" version="1.1" id="Layer_1" xmlns="http://www.w3.org/2000/svg" xmlns:xlink="http://www.w3.org/1999/xlink" viewBox="0 0 470 470" xml:space="preserve" stroke="#d4d4d4">
<g id="SVGRepo_bgCarrier" stroke-width="0"/>
<g id="SVGRepo_tracerCarrier" stroke-linecap="round" stroke-linejoin="round"/>
<g id="SVGRepo_iconCarrier"> <g> <g> <g> <path d="M467.803,44.623L425.377,2.197c-2.63-2.631-6.792-2.935-9.778-0.716L251.348,123.58 c-21.813,16.216-52.876,42.167-79.614,66.495c-18.116,3.41-34.784,12.161-48.103,25.48 c-12.887,12.887-21.497,28.909-25.131,46.345L2.197,358.202C0.79,359.608,0,361.516,0,363.505s0.79,3.897,2.197,5.303 l98.995,98.995c1.406,1.407,3.314,2.197,5.303,2.197s3.897-0.79,5.303-2.197L208.1,371.5 c17.435-3.634,33.457-12.244,46.345-25.131c13.6-13.6,22.065-30.417,25.408-48.024c24.348-26.756,50.335-57.858,66.566-79.693 l122.1-164.251C470.739,51.415,470.434,47.254,467.803,44.623z M106.495,451.894l-88.389-88.389l78.522-78.522 c0.986,23.198,10.482,44.867,27.002,61.386c16.519,16.52,38.188,26.017,61.386,27.002L106.495,451.894z M243.839,335.763 c-14.638,14.638-34.1,22.699-54.801,22.699s-40.163-8.062-54.801-22.699c-14.638-14.637-22.699-34.1-22.699-54.801 s8.062-40.163,22.699-54.801c14.638-14.638,34.1-22.699,54.801-22.699s40.163,8.061,54.801,22.699 C274.056,256.379,274.056,305.546,243.839,335.763z M334.382,209.703c-13.22,17.784-33.064,41.868-53.15,64.626 c-1.527-21.429-10.439-42.426-26.787-58.774c-15.881-15.88-36.518-25.273-58.7-26.852c22.736-20.063,46.787-39.879,64.552-53.084 L419.35,17.383l33.267,33.267L334.382,209.703z"/> <path d="M189.038,218.462c-16.694,0-32.39,6.501-44.194,18.306c-24.369,24.368-24.369,64.019,0,88.388 c12.185,12.185,28.189,18.276,44.194,18.276s32.01-6.092,44.194-18.276c7.536-7.536,13.047-16.926,15.937-27.155 c1.125-3.986-1.193-8.13-5.179-9.257c-3.986-1.125-8.13,1.193-9.257,5.179c-1.511,5.351-3.989,10.388-7.244,14.884 l-27.845-27.845l27.845-27.845c3.255,4.497,5.732,9.533,7.244,14.884c1.126,3.986,5.271,6.304,9.257,5.179 c3.986-1.126,6.305-5.271,5.179-9.257c-2.89-10.229-8.4-19.62-15.937-27.155C221.428,224.963,205.732,218.462,189.038,218.462z M150.57,253.1l27.862,27.862l-27.862,27.862C138.565,292.268,138.564,269.656,150.57,253.1z M216.9,319.43 c-16.556,12.006-39.168,12.005-55.724,0l27.862-27.862L216.9,319.43z M189.038,270.356l-27.864-27.864 c8.053-5.859,17.714-9.03,27.865-9.03c10.15,0,19.81,3.17,27.863,9.03L189.038,270.356z"/> </g> </g> </g> </g>
</svg>