<!DOCTYPE svg PUBLIC "-//W3C//DTD SVG 1.1//EN" "http://www.w3.org/Graphics/SVG/1.1/DTD/svg11.dtd">
<!-- Uploaded to: SVG Repo, www.svgrepo.com, Transformed by: SVG Repo Mixer Tools -->
<svg fill="#d4d4d4" height="800px" width="800px" version="1.1" id="Layer_1" xmlns="http://www.w3.org/2000/svg" xmlns:xlink="http://www.w3.org/1999/xlink" viewBox="0 0 471.024 471.024" xml:space="preserve" stroke="#d4d4d4">
<g id="SVGRepo_bgCarrier" stroke-width="0"/>
<g id="SVGRepo_tracerCarrier" stroke-linecap="round" stroke-linejoin="round"/>
<g id="SVGRepo_iconCarrier"> <g> <g> <path d="M450.446,131.949c-7.083-7.082-10.983-16.499-10.983-26.516c0-10.017,3.901-19.433,10.984-26.516l11.805-11.804 c11.696-11.697,11.697-30.729,0.001-42.427c-11.697-11.697-30.731-11.697-42.429,0l-18.738,18.738l-5.303-5.303 c-2.009-2.007-4.979-2.709-7.676-1.812l-31.819,10.606c-0.057,0.019-0.11,0.046-0.166,0.066c-0.169,0.061-0.336,0.127-0.501,0.2 c-0.088,0.039-0.174,0.079-0.26,0.121c-0.162,0.08-0.321,0.167-0.479,0.259c-0.081,0.047-0.162,0.092-0.24,0.142 c-0.157,0.1-0.31,0.21-0.461,0.323c-0.07,0.053-0.144,0.101-0.212,0.156c-0.185,0.149-0.364,0.31-0.538,0.479 c-0.024,0.023-0.051,0.042-0.074,0.066l-89.095,89.095l-1.767-1.767c-2.93-2.928-7.678-2.928-10.607,0 c-2.929,2.93-2.929,7.678,0,10.607l1.767,1.767l-10.606,10.607l-1.767-1.768c-2.93-2.929-7.679-2.93-10.606-0.001 c-2.93,2.93-2.93,7.678-0.001,10.606l1.768,1.769l-10.606,10.606l-1.767-1.768c-2.93-2.928-7.678-2.928-10.607,0 c-2.929,2.93-2.929,7.678,0,10.607l1.767,1.768l-10.605,10.605l-1.767-1.768c-2.93-2.928-7.678-2.928-10.607,0 c-2.929,2.93-2.929,7.678,0,10.607l1.767,1.768l-10.606,10.606l-1.769-1.769c-2.928-2.928-7.677-2.929-10.606,0.001 c-2.929,2.929-2.929,7.678,0.001,10.606l1.768,1.768l-74.34,74.34l-57.429,34.648c-5.414,3.266-10.468,7.23-15.019,11.782 C5.88,370.187-2.162,391.808,0.503,411.888c0.217,1.635,0.966,3.151,2.131,4.317l36.278,36.278 c1.166,1.165,2.683,1.914,4.317,2.131c2.478,0.329,5.031,0.496,7.59,0.496c17.945,0,36.261-8.022,50.244-22.007 c4.553-4.552,8.518-9.605,11.783-15.02l34.648-57.43l10.7-10.7l1.768,1.768c1.465,1.465,3.384,2.197,5.304,2.197 c1.919,0,3.839-0.732,5.303-2.196c2.93-2.93,2.93-7.678,0.001-10.606l-1.769-1.769l10.606-10.606l1.768,1.768 c1.465,1.464,3.385,2.196,5.304,2.196s3.839-0.732,5.304-2.196c2.929-2.93,2.929-7.678,0-10.607l-1.768-1.768l98.994-98.994 l1.768,1.768c1.465,1.464,3.385,2.196,5.304,2.196c1.919,0,3.839-0.732,5.304-2.196c2.929-2.93,2.929-7.678,0-10.607l-1.768-1.768 l10.605-10.605l1.768,1.768c1.465,1.464,3.385,2.196,5.304,2.196c1.919,0,3.839-0.732,5.304-2.196 c2.929-2.93,2.929-7.678,0-10.607l-1.768-1.768l35.355-35.354l1.768,1.768c1.465,1.464,3.385,2.196,5.304,2.196 c1.919,0,3.839-0.732,5.304-2.196c2.929-2.93,2.929-7.678,0-10.607l-1.768-1.768l13.081-13.081l1.768,1.768 c1.465,1.464,3.385,2.196,5.304,2.196c1.919,0,3.839-0.732,5.304-2.196c2.929-2.93,2.929-7.678,0-10.607l-1.768-1.768 l15.909-15.909c0.198-0.198,0.38-0.406,0.551-0.62c0.044-0.055,0.082-0.113,0.125-0.169c0.126-0.166,0.246-0.334,0.356-0.508 c0.042-0.066,0.079-0.134,0.119-0.202c0.102-0.172,0.197-0.346,0.283-0.524c0.035-0.072,0.068-0.145,0.101-0.218 c0.082-0.183,0.155-0.368,0.222-0.555c0.016-0.045,0.038-0.089,0.054-0.135l10.607-31.819c0.898-2.695,0.197-5.667-1.812-7.676 l-5.303-5.303l18.738-18.738c2.826-2.827,6.594-4.384,10.607-4.384s7.78,1.557,10.606,4.384 c5.849,5.848,5.848,15.363-0.003,21.215l-11.801,11.801c-9.917,9.916-15.379,23.101-15.379,37.124 c0,14.023,5.461,27.207,15.377,37.123l18.039,18.038c1.464,1.464,3.384,2.196,5.303,2.196s3.839-0.732,5.304-2.197 c2.929-2.929,2.929-7.678-0.001-10.606L450.446,131.949z M221.834,201.464l10.607,10.606l-10.606,10.606l-10.606-10.606 L221.834,201.464z M200.621,222.677l10.606,10.606l-10.606,10.606l-10.606-10.606L200.621,222.677z M158.194,328.742 l-10.605-10.606l10.606-10.606l10.605,10.605L158.194,328.742z M117.535,326.975c-2.929,2.93-2.929,7.678,0,10.607 c1.465,1.464,3.385,2.196,5.304,2.196s3.839-0.732,5.304-2.196l8.839-8.839l10.605,10.606l-11.345,11.345 c-0.429,0.43-0.805,0.909-1.118,1.43l-35.121,58.213c-2.64,4.375-5.851,8.467-9.546,12.161 c-11.192,11.193-25.641,17.613-39.638,17.613c-1.067,0-2.131-0.039-3.183-0.116l-32.518-32.518 c-1.11-14.802,5.318-30.634,17.502-42.817c3.693-3.694,7.785-6.905,12.16-9.545l58.212-35.121c0.521-0.313,1-0.689,1.43-1.118 l74.986-74.986l10.606,10.606L117.535,326.975z M179.408,307.528l-10.605-10.605l79.549-79.549c2.929-2.93,2.929-7.678,0-10.607 l-15.91-15.91l10.606-10.606l15.909,15.909c1.465,1.465,3.384,2.197,5.304,2.197c1.919,0,3.839-0.732,5.303-2.196 c2.93-2.93,2.93-7.678,0.001-10.606l-15.91-15.911l10.607-10.606l15.91,15.91c1.465,1.464,3.385,2.196,5.304,2.196 c1.919,0,3.839-0.732,5.304-2.196c2.929-2.93,2.929-7.678,0-10.607l-15.91-15.91l83.791-83.791l10.606,10.606l-60.811,60.811 c-2.929,2.93-2.929,7.678,0,10.607c1.465,1.464,3.385,2.196,5.304,2.196c1.919,0,3.839-0.732,5.304-2.196l15.909-15.909 l10.605,10.605L179.408,307.528z M356.184,130.752l-10.605-10.605l13.081-13.081l10.605,10.605L356.184,130.752z M379.872,107.063 l-10.605-10.605l10.605-10.605l10.605,10.605L379.872,107.063z M397.808,82.573l-25.264-25.264l15.91-5.303l14.658,14.658 L397.808,82.573z"/> </g> </g> </g>
</svg>